<svg xmlns="http://www.w3.org/2000/svg" xmlns:xlink="http://www.w3.org/1999/xlink" width="70" height="100" viewBox="0 0 70 100">
  <defs>
    <style>
      .cls-1 {
        fill: #0089d7;
        filter: url(#filter);
      }

      .cls-1, .cls-2 {
        fill-rule: evenodd;
      }

      .cls-2 {
        fill: #fff;
      }
    </style>
    <clipPath id="clip-path">
      <rect x="2.5" y="9.5" width="65" height="81"/>
    </clipPath>
    <filter id="filter" x="-1" y="-1" width="68" height="86" filterUnits="userSpaceOnUse">
      <feOffset result="offset" dx="2.06" dy="3.429" in="SourceAlpha"/>
      <feGaussianBlur result="blur" stdDeviation="3.162"/>
      <feFlood result="flood" flood-opacity="0.16"/>
      <feComposite result="composite" operator="in" in2="blur"/>
      <feBlend result="blend" in="SourceGraphic"/>
    </filter>
  </defs>
  <g clip-path="url(#clip-path)">
    <g id="map_marker_kit" data-name="map marker kit">
      <path class="cls-1" d="M30.487,5A24.694,24.694,0,0,0,6,29.9C6,49.837,28.886,70.189,28.886,70.189c1.293,1.077,2.057,1.077,3.35,0C32.236,70.189,55,49.837,55,29.9A24.731,24.731,0,0,0,30.487,5Zm0,37.436A12.526,12.526,0,1,1,42.8,29.911,12.435,12.435,0,0,1,30.487,42.435Z" transform="translate(2.5 9.5)"/>
      <path class="cls-2" d="M30.5,42.455A12.528,12.528,0,1,1,42.811,29.928,12.433,12.433,0,0,1,30.5,42.455Z" transform="translate(2.5 9.5)"/>
    </g>
  </g>
</svg>
